<svg width="274" height="47" viewBox="0 0 274 47" fill="none" xmlns="http://www.w3.org/2000/svg">
<path d="M34.584 17.264C39.6613 18.6293 43.4587 20.4427 45.976 22.704C48.4933 24.9227 49.752 27.824 49.752 31.408C49.752 34.2667 48.856 36.8267 47.064 39.088C45.272 41.3493 42.6267 43.12 39.128 44.4C35.672 45.68 31.4693 46.32 26.52 46.32C20.6747 46.32 15.512 45.5733 11.032 44.08C6.59467 42.544 3.11733 40.688 0.6 38.512L2.712 35.632C4.93067 37.3813 7.72533 38.8747 11.096 40.112C14.4667 41.3493 18.0933 41.968 21.976 41.968C24.4933 41.968 26.392 41.6053 27.672 40.88C28.9947 40.1547 29.656 39.1307 29.656 37.808C29.656 35.504 27.3733 33.712 22.808 32.432L14.488 30C9.96533 28.6347 6.46667 26.736 3.992 24.304C1.56 21.872 0.344 18.992 0.344 15.664C0.344 12.8907 1.21867 10.3733 2.968 8.112C4.71733 5.85066 7.256 4.08 10.584 2.8C13.9547 1.47733 17.9867 0.815998 22.68 0.815998C27.16 0.815998 31.2773 1.328 35.032 2.352C38.8293 3.376 41.9227 4.61333 44.312 6.064L42.2 9.008C40.1947 7.856 37.784 6.87467 34.968 6.064C32.1947 5.25333 29.272 4.848 26.2 4.848C23.512 4.848 21.4427 5.27467 19.992 6.128C18.584 6.93866 17.88 8.06933 17.88 9.52C17.88 10.6293 18.4133 11.6107 19.48 12.464C20.5467 13.2747 22.5733 14.0853 25.56 14.896L34.584 17.264ZM77.374 46.32C71.6567 46.32 66.494 45.4453 61.886 43.696C57.278 41.9467 53.63 39.3653 50.942 35.952C48.2967 32.496 46.974 28.3573 46.974 23.536C46.974 18.7573 48.318 14.6613 51.006 11.248C53.694 7.83466 57.3207 5.25333 61.886 3.504C66.494 1.712 71.6567 0.815998 77.374 0.815998C83.0487 0.815998 88.1687 1.712 92.734 3.504C97.342 5.25333 100.969 7.83466 103.614 11.248C106.302 14.6613 107.646 18.7573 107.646 23.536C107.646 28.3573 106.302 32.496 103.614 35.952C100.969 39.3653 97.342 41.9467 92.734 43.696C88.1687 45.4453 83.0487 46.32 77.374 46.32ZM77.374 42.544C79.166 42.544 80.4887 41.7333 81.342 40.112C82.0673 38.8747 82.558 36.6773 82.814 33.52C82.942 31.856 83.006 28.528 83.006 23.536C83.006 18.5013 82.8993 14.9387 82.686 12.848C82.558 10.288 82.0887 8.34667 81.278 7.024C80.4247 5.40267 79.1233 4.592 77.374 4.592C75.582 4.592 74.238 5.40267 73.342 7.024C72.6167 8.304 72.1473 10.2453 71.934 12.848C71.7633 15.0667 71.678 18.6293 71.678 23.536C71.678 29.0827 71.742 32.4107 71.87 33.52C72.0407 36.464 72.51 38.6613 73.278 40.112C74.174 41.7333 75.5393 42.544 77.374 42.544ZM105.677 1.2H128.141V42.16H152.461V46H105.677V1.2ZM132.656 1.2H153.392L168.049 34.224L180.337 1.2H185.265L168.368 46H152.497L132.656 1.2ZM182.562 1.2H229.09V4.976H205.09V21.552H216.866V25.392H205.09V42.16H229.09V46H182.562V1.2ZM238.67 23.408L227.534 1.2H249.934L258.894 18.992L268.622 1.2H273.614L261.198 23.728L272.334 46H249.934L241.038 28.144L231.182 46H226.254L238.67 23.408Z" fill="white"/>
</svg>
